<?xml version="1.0" encoding="iso-8859-1"?>
<!-- Generator: Adobe Illustrator 16.0.0, SVG Export Plug-In . SVG Version: 6.00 Build 0)  -->
<!DOCTYPE svg PUBLIC "-//W3C//DTD SVG 1.1//EN" "http://www.w3.org/Graphics/SVG/1.1/DTD/svg11.dtd">
<svg version="1.1" id="Capa_1" xmlns="http://www.w3.org/2000/svg" xmlns:xlink="http://www.w3.org/1999/xlink" x="0px" y="0px"
	 width="30.5px" height="30.5px" viewBox="0 0 30.5 30.5" style="enable-background:new 0 0 30.5 30.5;" xml:space="preserve">
<g>
	<path d="M28.394,28.043l-0.816-4.596c-0.222-1.235-1.354-2.405-2.579-2.663l-0.657-0.14V10.48C24.341,2.886,20.325,0,15.37,0
		c-4.955,0-8.971,2.887-8.971,10.48v10.115l-0.896,0.188c-1.227,0.258-2.359,1.428-2.579,2.662l-0.818,4.597
		c-0.115,0.646,0.038,1.259,0.432,1.729C2.932,30.24,3.509,30.5,4.164,30.5h22.172c0.655,0,1.231-0.26,1.626-0.729
		C28.353,29.301,28.509,28.689,28.394,28.043z M27.195,29.13c-0.198,0.238-0.505,0.37-0.858,0.37h-4.282v-2.479
		c0-0.276-0.224-0.5-0.5-0.5s-0.5,0.224-0.5,0.5V29.5H9.445v-2.479c0-0.276-0.224-0.5-0.5-0.5c-0.276,0-0.5,0.224-0.5,0.5V29.5
		H4.163c-0.354,0-0.66-0.132-0.86-0.37c-0.2-0.239-0.276-0.562-0.214-0.911l0.818-4.596c0.148-0.835,0.973-1.688,1.801-1.859
		l3.119-0.658l1.253-0.264l0.456,0.264l3.409,1.974c0.077,0.045,0.164,0.065,0.25,0.065c0.049,0,0.098-0.006,0.146-0.021
		c0.132-0.041,0.242-0.136,0.303-0.259l0.605-1.236l0.604,1.236c0.062,0.123,0.171,0.218,0.304,0.259
		c0.048,0.015,0.097,0.021,0.146,0.021c0.087,0,0.173-0.021,0.25-0.065l3.409-1.974l0.456-0.264l1.253,0.264l3.119,0.658
		c0.828,0.174,1.65,1.024,1.801,1.859l0.818,4.596C27.472,28.566,27.395,28.891,27.195,29.13z M9.074,10.988
		c0.114-0.033,0.231-0.008,0.348,0.059v-0.321h6.87l0.625-3.74v3.89h4.162v0.172c0.114-0.066,0.232-0.092,0.348-0.059
		c0.382,0.113,0.549,0.811,0.373,1.559c-0.171,0.727-1.034,1.229-1.408,1.152c-0.729,2.368-3.267,5.104-5.141,5.104
		c-1.927,0-4.396-2.673-5.13-5.104c-0.375,0.084-1.245-0.42-1.417-1.152C8.525,11.799,8.691,11.102,9.074,10.988z M19.896,19.988
		l-0.294,0.17l-0.646,0.375l-0.989,0.572l-1.449,0.838l-0.41-0.838l-0.234-0.48l0.93-0.538l0.657-0.38l0.646-0.375l1.146-0.662
		l0.492,1.008L19.896,19.988z M11.246,18.67l1.146,0.662l0.647,0.375l0.657,0.38l0.93,0.538l-0.235,0.48l-0.41,0.838l-1.449-0.838
		l-0.989-0.572l-0.647-0.375l-0.294-0.17l0.152-0.312L11.246,18.67z"/>
</g>
<g>
</g>
<g>
</g>
<g>
</g>
<g>
</g>
<g>
</g>
<g>
</g>
<g>
</g>
<g>
</g>
<g>
</g>
<g>
</g>
<g>
</g>
<g>
</g>
<g>
</g>
<g>
</g>
<g>
</g>
</svg>
