<svg id="Layer_1" data-name="Layer 1" xmlns="http://www.w3.org/2000/svg" viewBox="0 0 94.09 94.09"><defs><style>.cls-1{fill:#063552;}.cls-2{fill:#f47d20;}.cls-3{fill:none;stroke:#063552;stroke-miterlimit:10;stroke-width:8px;}</style></defs><title>rare-disease-icon</title><circle class="cls-1" cx="34.03" cy="38.44" r="1.92"/><polygon class="cls-1" points="36.06 40.94 32.27 40.94 30.77 42.48 30.86 48.82 32.15 49.73 32.15 56.4 33.15 57.4 34.98 57.4 35.98 56.4 36.11 49.73 37.44 48.77 37.48 42.52 36.06 40.94"/><circle class="cls-1" cx="43.61" cy="38.44" r="1.92"/><polygon class="cls-1" points="45.65 40.94 41.86 40.94 40.36 42.48 40.44 48.82 41.73 49.73 41.73 56.4 42.73 57.4 44.56 57.4 45.56 56.4 45.69 49.73 47.02 48.77 47.06 42.52 45.65 40.94"/><circle class="cls-1" cx="24.2" cy="38.44" r="1.92"/><polygon class="cls-1" points="26.23 40.94 22.44 40.94 20.94 42.48 21.02 48.82 22.32 49.73 22.32 56.4 23.32 57.4 25.15 57.4 26.15 56.4 26.27 49.73 27.61 48.77 27.65 42.52 26.23 40.94"/><circle class="cls-1" cx="14.53" cy="38.44" r="1.92"/><polygon class="cls-1" points="16.57 40.94 12.77 40.94 11.27 42.48 11.36 48.82 12.65 49.73 12.65 56.4 13.65 57.4 15.48 57.4 16.48 56.4 16.61 49.73 17.94 48.77 17.98 42.52 16.57 40.94"/><circle class="cls-1" cx="5.03" cy="38.44" r="1.92"/><polygon class="cls-1" points="7.07 40.94 3.27 40.94 1.77 42.48 1.86 48.82 3.15 49.73 3.15 56.4 4.15 57.4 5.98 57.4 6.98 56.4 7.11 49.73 8.44 48.77 8.48 42.52 7.07 40.94"/><circle class="cls-1" cx="53.36" cy="38.44" r="1.92"/><polygon class="cls-1" points="55.4 40.94 51.61 40.94 50.11 42.48 50.19 48.82 51.48 49.73 51.48 56.4 52.48 57.4 54.31 57.4 55.31 56.4 55.44 49.73 56.77 48.77 56.81 42.52 55.4 40.94"/><circle class="cls-2" cx="63.2" cy="38.44" r="1.92"/><polygon class="cls-2" points="65.23 40.94 61.44 40.94 59.94 42.48 60.02 48.82 61.31 49.73 61.31 56.4 62.31 57.4 64.15 57.4 65.15 56.4 65.27 49.73 66.61 48.77 66.65 42.52 65.23 40.94"/><circle class="cls-1" cx="72.86" cy="38.44" r="1.92"/><polygon class="cls-1" points="74.9 40.94 71.11 40.94 69.61 42.48 69.69 48.82 70.98 49.73 70.98 56.4 71.98 57.4 73.81 57.4 74.81 56.4 74.94 49.73 76.27 48.77 76.31 42.52 74.9 40.94"/><circle class="cls-1" cx="82.53" cy="38.44" r="1.92"/><polygon class="cls-1" points="84.56 40.94 80.77 40.94 79.27 42.48 79.36 48.82 80.65 49.73 80.65 56.4 81.65 57.4 83.48 57.4 84.48 56.4 84.61 49.73 85.94 48.77 85.98 42.52 84.56 40.94"/><circle class="cls-1" cx="14.61" cy="63.03" r="1.92"/><polygon class="cls-1" points="16.65 65.52 12.86 65.52 11.36 67.07 11.44 73.4 12.73 74.32 12.73 78.48 13.73 79.48 15.56 79.48 16.57 78.48 16.69 74.32 18.02 73.36 18.06 67.11 16.65 65.52"/><circle class="cls-1" cx="24.28" cy="63.03" r="1.92"/><polygon class="cls-1" points="26.32 65.52 22.52 65.52 21.02 67.07 21.11 73.4 22.4 74.32 22.4 80.98 23.4 81.98 25.23 81.98 26.23 80.98 26.36 74.32 27.69 73.36 27.73 67.11 26.32 65.52"/><polygon class="cls-1" points="16.57 16.52 12.77 16.52 11.27 18.07 11.36 24.4 12.65 25.32 12.65 31.98 13.65 32.98 15.48 32.98 16.48 31.98 16.61 25.32 17.94 24.36 17.98 18.11 16.57 16.52"/><circle class="cls-1" cx="24.2" cy="14.03" r="1.92"/><polygon class="cls-1" points="26.23 16.52 22.44 16.52 20.94 18.07 21.02 24.4 22.32 25.32 22.32 31.98 23.32 32.98 25.15 32.98 26.15 31.98 26.27 25.32 27.61 24.36 27.65 18.11 26.23 16.52"/><circle class="cls-1" cx="33.95" cy="63.03" r="1.92"/><polygon class="cls-1" points="35.98 65.52 32.19 65.52 30.69 67.07 30.77 73.4 32.06 74.32 32.06 80.98 33.06 81.98 34.9 81.98 35.9 80.98 36.02 74.32 37.36 73.36 37.4 67.11 35.98 65.52"/><circle class="cls-1" cx="43.7" cy="63.03" r="1.92"/><polygon class="cls-1" points="45.73 65.52 41.94 65.52 40.44 67.07 40.52 73.4 41.81 74.32 41.81 80.98 42.81 81.98 44.65 81.98 45.65 80.98 45.77 74.32 47.11 73.36 47.15 67.11 45.73 65.52"/><circle class="cls-1" cx="53.45" cy="63.03" r="1.92"/><polygon class="cls-1" points="55.48 65.52 51.69 65.52 50.19 67.07 50.27 73.4 51.56 74.32 51.56 80.98 52.56 81.98 54.4 81.98 55.4 80.98 55.52 74.32 56.86 73.36 56.9 67.11 55.48 65.52"/><circle class="cls-1" cx="63.11" cy="63.03" r="1.92"/><polygon class="cls-1" points="65.15 65.52 61.36 65.52 59.86 67.07 59.94 73.4 61.23 74.32 61.23 80.98 62.23 81.98 64.06 81.98 65.06 80.98 65.19 74.32 66.52 73.36 66.56 67.11 65.15 65.52"/><circle class="cls-1" cx="72.86" cy="63.03" r="1.92"/><polygon class="cls-1" points="74.9 65.52 71.11 65.52 69.61 67.07 69.69 73.4 70.98 74.32 70.98 80.98 71.98 81.98 73.81 81.98 74.81 80.98 74.94 74.32 76.27 73.36 76.31 67.11 74.9 65.52"/><circle class="cls-1" cx="33.95" cy="14.03" r="1.92"/><polygon class="cls-1" points="35.98 16.52 32.19 16.52 30.69 18.07 30.77 24.4 32.06 25.32 32.06 31.98 33.06 32.98 34.9 32.98 35.9 31.98 36.02 25.32 37.36 24.36 37.4 18.11 35.98 16.52"/><circle class="cls-1" cx="43.7" cy="14.03" r="1.92"/><polygon class="cls-1" points="45.73 16.52 41.94 16.52 40.44 18.07 40.52 24.4 41.81 25.32 41.81 31.98 42.81 32.98 44.65 32.98 45.65 31.98 45.77 25.32 47.11 24.36 47.15 18.11 45.73 16.52"/><circle class="cls-1" cx="53.45" cy="14.03" r="1.92"/><polygon class="cls-1" points="55.48 16.52 51.69 16.52 50.19 18.07 50.27 24.4 51.56 25.32 51.56 31.98 52.56 32.98 54.4 32.98 55.4 31.98 55.52 25.32 56.86 24.36 56.9 18.11 55.48 16.52"/><circle class="cls-1" cx="63.11" cy="14.03" r="1.92"/><polygon class="cls-1" points="65.15 16.52 61.36 16.52 59.86 18.07 59.94 24.4 61.23 25.32 61.23 31.98 62.23 32.98 64.06 32.98 65.06 31.98 65.19 25.32 66.52 24.36 66.56 18.11 65.15 16.52"/><circle class="cls-1" cx="72.86" cy="14.03" r="1.92"/><polygon class="cls-1" points="74.9 16.52 71.11 16.52 69.61 18.07 69.69 24.4 70.98 25.32 70.98 31.98 71.98 32.98 73.81 32.98 74.81 31.98 74.94 25.32 76.27 24.36 76.31 18.11 74.9 16.52"/><polygon class="cls-1" points="84.56 18.9 80.77 18.9 79.27 20.23 79.36 25.68 80.65 26.47 80.65 32.2 81.65 33.07 83.48 33.07 84.48 32.2 84.61 26.47 85.94 25.64 85.98 20.26 84.56 18.9"/><circle class="cls-3" cx="47.04" cy="47.04" r="43.04"/></svg>